<svg id="Capa_1" data-name="Capa 1" xmlns="http://www.w3.org/2000/svg" viewBox="0 0 512 512"><defs><style>.cls-1{fill:#c1d42f;}</style></defs><title>swap</title><polygon class="cls-1" points="240.06 134.59 317.8 139.35 289.15 197.62 324.56 199.78 256.58 285.87 293.37 288.12 224.78 384.49 229.03 315.02 192.23 312.77 231.7 225.77 197.67 223.69 240.06 134.59 240.06 134.59"/><path d="M379.83,76.46C326.31,33.44,235,26.6,162.72,60.2,89.58,94.19,48.16,161.8,46.07,250.57c0,.18,0,.34,0,.51H7l59.63,89.77,59.62-89.77H89.32c2.32-91.21,51.07-132.84,91.62-151.68,57.22-26.6,131.08-22,171.8,10.75a21.62,21.62,0,0,0,27.09-33.69Z"/><path d="M507,250.7l-59.63-89.77L387.77,250.7h36.9c-2.32,91.22-51.07,132.84-91.62,151.68C275.82,429,202,424.36,161.26,391.63a21.62,21.62,0,0,0-27.09,33.69c30.78,24.75,74.05,37.52,119,37.52,33.22,0,67.37-7,98.09-21.25,73.13-34,114.55-101.6,116.64-190.38,0-.17,0-.33,0-.51Z"/></svg>