<svg id="Layer_1" data-name="Layer 1" xmlns="http://www.w3.org/2000/svg" viewBox="0 0 909 361.94"><defs><style>.cls-1{fill:#c1d42f;}.cls-2{fill:#fff;}</style></defs><title>volt_logo</title><polygon class="cls-1" points="424.74 87.54 488.5 91.44 465 139.23 494.04 141 438.29 211.61 468.46 213.46 412.21 292.49 415.69 235.52 385.51 233.67 417.88 162.32 389.98 160.61 424.74 87.54 424.74 87.54"/><path class="cls-2" d="M539.37,39.87C495.48,4.58,420.59-1,361.31,26.53c-60,27.88-94,83.33-95.67,156.13,0,.14,0,.28,0,.42H233.56l48.91,73.62,48.9-73.62H301.11c1.91-74.81,41.89-109,75.14-124.4,46.93-21.82,107.51-18,140.9,8.82a17.73,17.73,0,0,0,22.22-27.63Z"/><path class="cls-2" d="M643.7,182.77l-48.91-73.63-48.91,73.63h30.27c-1.9,74.81-41.89,109-75.14,124.4-46.94,21.82-107.51,18-140.9-8.82A17.72,17.72,0,1,0,337.9,326c25.24,20.29,60.72,30.77,97.6,30.77A192.34,192.34,0,0,0,516,339.32c60-27.87,93.95-83.32,95.66-156.13,0-.15,0-.28,0-.42Z"/><path class="cls-2" d="M179.68,93.87c0-3.74-1.66-6.24-5.82-6.24h-5c-2.91,0-5.82,1.66-7.48,7.48L108.18,282.59c-3.74,12.47-7.06,15-11.63,15s-8.73-2.49-12.48-15L30.87,95.11c-1.67-5.82-4.58-7.48-7.49-7.48H19.23c-4.16,0-6.65,2.91-6.65,7.07A10.42,10.42,0,0,0,13,98L67.45,287.16c6.23,22,17.46,26.19,29.1,26.19,12,0,22-4.16,28.26-26.19L179.27,98a14.28,14.28,0,0,0,.41-4.15ZM719.69,303V9.9c0-4.16-2.91-7.9-7.06-7.9h-4.16c-4.16,0-7.07,3.74-7.07,7.9V303c0,4.15,2.91,7.89,7.07,7.89h4.16c4.15,0,7.06-3.74,7.06-7.89Zm174.59,2.49V303c0-3.75-2.5-5.82-8.73-5.82H865.6c-18.29,0-28.69-3.75-28.69-28.69V104.67h49.47c4.57,0,7.9-2.49,7.9-6.65V93.87c0-4.16-3.33-6.24-7.9-6.24H836.91V44.81c0-4.15-2.49-7.89-6.65-7.89h-4.57c-4.57,0-7.07,3.74-7.07,7.89V87.63H777.47c-4.57,0-7.9,2.08-7.9,6.24V98c0,4.16,3.33,6.65,7.9,6.65h41.15V268.45c0,35.75,17.46,44.9,47,44.9a178.22,178.22,0,0,0,21.61-1.25c5.82-.83,7.07-3.32,7.07-6.65Z"/></svg>